<svg width="393" height="429" viewBox="0 0 393 429" fill="none" xmlns="http://www.w3.org/2000/svg">
<path d="M357 353C357 392.243 325.405 424 286.5 424C247.595 424 216 392.243 216 353C216 313.757 247.595 282 286.5 282C325.405 282 357 313.757 357 353Z" stroke="black" stroke-width="10"/>
<path d="M142 176.5C142 195.614 126.718 211 108 211C89.2822 211 74 195.614 74 176.5C74 157.386 89.2822 142 108 142C126.718 142 142 157.386 142 176.5Z" stroke="black" stroke-width="10"/>
<circle cx="60.5" cy="337.5" r="55.5" stroke="black" stroke-width="10"/>
<path d="M388 55.5C388 83.3482 365.209 106 337 106C308.791 106 286 83.3482 286 55.5C286 27.6518 308.791 5 337 5C365.209 5 388 27.6518 388 55.5Z" stroke="black" stroke-width="10"/>
<path d="M299 280L329 110" stroke="black" stroke-width="6"/>
<path d="M119 343L213 350" stroke="black" stroke-width="6"/>
<path d="M78 281L98 214" stroke="black" stroke-width="6"/>
<path d="M108 309L304 97" stroke="black" stroke-width="6"/>
<path d="M135 203L232 302" stroke="black" stroke-width="6"/>
</svg>
